<?xml version="1.0" standalone="no"?>
<!DOCTYPE svg PUBLIC "-//W3C//DTD SVG 20010904//EN"
 "http://www.w3.org/TR/2001/REC-SVG-20010904/DTD/svg10.dtd">
<svg version="1.0" xmlns="http://www.w3.org/2000/svg"
 width="1280.000000pt" height="1075.000000pt" viewBox="0 0 1280.000000 1075.000000"
 preserveAspectRatio="xMidYMid meet">
<metadata>
Created by potrace 1.15, written by Peter Selinger 2001-2017
</metadata>
<g transform="translate(0.000000,1075.000000) scale(0.100000,-0.100000)"
fill="#000000" stroke="none">
<path d="M5177 9830 c-261 -44 -489 -205 -616 -433 l-38 -68 -17 46 c-105 275
-763 355 -1193 145 -117 -57 -214 -142 -251 -221 -31 -65 -45 -148 -34 -209 5
-27 8 -50 7 -50 -2 0 -32 14 -67 30 -179 84 -383 76 -585 -21 -218 -104 -371
-297 -404 -509 -23 -151 24 -319 128 -463 20 -26 34 -49 32 -50 -2 -2 -34 -23
-72 -46 -122 -78 -215 -207 -251 -347 -20 -79 -21 -222 -1 -299 43 -164 157
-304 306 -374 77 -37 204 -71 262 -71 l24 0 -5 -102 c-3 -87 -1 -113 18 -168
36 -110 120 -216 217 -278 l43 -27 0 -77 c0 -99 14 -166 55 -253 109 -235 361
-375 680 -379 l120 -1 0 -100 c0 -95 2 -104 38 -179 72 -152 232 -270 442
-327 103 -27 359 -37 502 -19 128 16 328 67 479 122 l122 44 5 -58 c15 -163
153 -314 354 -383 212 -74 500 -72 792 5 62 16 115 30 116 30 1 0 7 -19 14
-42 19 -65 65 -129 145 -206 259 -246 602 -287 891 -107 85 53 212 168 275
250 23 30 46 55 50 55 4 0 12 -12 19 -27 60 -131 256 -272 480 -344 325 -104
635 -64 819 105 72 68 121 144 153 241 13 39 24 71 25 73 0 1 21 -5 45 -14 80
-28 189 -44 307 -44 365 1 632 144 712 381 36 104 21 288 -34 420 -5 12 4 21
36 35 54 24 157 120 214 200 95 133 139 267 132 404 -5 109 -37 181 -111 253
-89 87 -218 142 -397 171 -51 9 -94 17 -96 18 -1 2 15 39 37 83 25 51 44 106
51 150 6 39 24 95 39 127 159 312 143 604 -43 773 -128 115 -351 185 -593 185
l-84 0 30 65 c46 102 62 185 57 300 -4 71 -11 116 -27 157 -64 166 -230 293
-458 350 -126 32 -398 32 -559 0 -126 -25 -300 -78 -423 -128 -46 -19 -85 -33
-87 -31 -3 2 21 44 52 93 31 49 78 134 106 188 l50 99 -54 -7 c-29 -4 -101
-16 -160 -28 l-107 -21 -48 43 c-101 89 -284 173 -438 201 l-66 13 7 39 c10
63 21 306 14 349 l-5 40 -80 -52 c-102 -67 -222 -157 -306 -231 l-66 -58 -54
15 c-33 10 -114 18 -207 21 -102 4 -155 9 -156 17 -34 130 -219 537 -237 519
-16 -16 -139 -237 -161 -290 -12 -29 -25 -53 -29 -53 -3 0 -18 17 -31 38 -91
136 -281 249 -493 293 -95 20 -268 24 -358 9z"/>
<path d="M3023 4914 c-87 -171 -165 -349 -194 -444 -40 -132 -13 -256 74 -343
164 -164 431 -67 477 174 12 65 -4 149 -55 279 -38 97 -193 420 -218 454 -12
17 -20 6 -84 -120z"/>
<path d="M4093 4262 c-157 -282 -219 -441 -209 -530 13 -110 96 -214 198 -248
67 -22 177 -15 234 14 90 46 164 163 164 258 0 51 -37 159 -101 293 -60 127
-190 361 -199 361 -3 0 -42 -66 -87 -148z"/>
<path d="M5338 4273 c-141 -250 -218 -430 -218 -505 0 -71 29 -138 83 -193
170 -169 462 -74 492 161 9 68 -28 179 -119 357 -81 159 -158 296 -167 297 -3
0 -35 -53 -71 -117z"/>
<path d="M8723 3844 c-121 -246 -158 -351 -151 -438 6 -73 32 -127 85 -178 50
-48 99 -68 170 -68 103 1 184 56 231 159 50 109 16 240 -144 556 -41 83 -79
154 -84 159 -5 5 -51 -76 -107 -190z"/>
<path d="M7827 3937 c-79 -141 -175 -340 -202 -420 -35 -104 -33 -167 6 -245
51 -103 130 -151 249 -151 152 -1 270 115 270 266 0 76 -23 146 -100 309 -51
108 -167 324 -174 324 -1 0 -23 -37 -49 -83z"/>
<path d="M6862 3772 c-145 -262 -212 -422 -212 -510 0 -109 71 -218 172 -263
75 -33 183 -33 252 1 129 62 196 200 162 331 -23 86 -98 251 -193 421 -46 84
-88 156 -92 160 -4 4 -44 -59 -89 -140z"/>
</g>
</svg>
